<mxfile host="app.diagrams.net" modified="2023-10-10T15:23:49.092Z" agent="Mozilla/5.0 (X11; Linux x86_64; rv:109.0) Gecko/20100101 Firefox/114.0" etag="zMLcy3k684TbSlS5RAvy" version="22.0.4" type="github">
  <diagram name="Page-1" id="W5mbrO7OpuzhUWkxqL1K">
    <mxGraphModel dx="2284" dy="795" grid="1" gridSize="10" guides="1" tooltips="1" connect="1" arrows="1" fold="1" page="1" pageScale="1" pageWidth="850" pageHeight="1100" math="0" shadow="0">
      <root>
        <mxCell id="0" />
        <mxCell id="1" parent="0" />
        <mxCell id="KsnkNuso38xR1FnwHKLN-16" style="edgeStyle=orthogonalEdgeStyle;rounded=0;orthogonalLoop=1;jettySize=auto;html=1;entryX=0;entryY=0.5;entryDx=0;entryDy=0;endArrow=none;endFill=0;" edge="1" parent="1" source="KsnkNuso38xR1FnwHKLN-1" target="KsnkNuso38xR1FnwHKLN-15">
          <mxGeometry relative="1" as="geometry" />
        </mxCell>
        <mxCell id="KsnkNuso38xR1FnwHKLN-1" value="Empleado" style="whiteSpace=wrap;html=1;align=center;fillColor=#ffe6cc;strokeColor=#d79b00;" vertex="1" parent="1">
          <mxGeometry x="325" y="260" width="100" height="40" as="geometry" />
        </mxCell>
        <mxCell id="KsnkNuso38xR1FnwHKLN-2" value="Personal de administraciÃ³n" style="whiteSpace=wrap;html=1;align=center;fillColor=#ffe6cc;strokeColor=#d79b00;" vertex="1" parent="1">
          <mxGeometry x="215" y="480" width="100" height="40" as="geometry" />
        </mxCell>
        <mxCell id="KsnkNuso38xR1FnwHKLN-3" value="Profesores" style="whiteSpace=wrap;html=1;align=center;fillColor=#ffe6cc;strokeColor=#d79b00;" vertex="1" parent="1">
          <mxGeometry y="480" width="100" height="40" as="geometry" />
        </mxCell>
        <mxCell id="KsnkNuso38xR1FnwHKLN-4" value="Personal de limpieza" style="whiteSpace=wrap;html=1;align=center;fillColor=#ffe6cc;strokeColor=#d79b00;" vertex="1" parent="1">
          <mxGeometry x="435" y="480" width="100" height="40" as="geometry" />
        </mxCell>
        <mxCell id="KsnkNuso38xR1FnwHKLN-5" value="Mantenimiento" style="whiteSpace=wrap;html=1;align=center;fillColor=#ffe6cc;strokeColor=#d79b00;" vertex="1" parent="1">
          <mxGeometry x="660" y="480" width="100" height="40" as="geometry" />
        </mxCell>
        <mxCell id="KsnkNuso38xR1FnwHKLN-12" value="ID" style="ellipse;whiteSpace=wrap;html=1;align=center;fontStyle=4;fillColor=#fff2cc;strokeColor=#d6b656;" vertex="1" parent="1">
          <mxGeometry x="-190" y="480" width="100" height="40" as="geometry" />
        </mxCell>
        <mxCell id="KsnkNuso38xR1FnwHKLN-14" value="Attribute" style="ellipse;whiteSpace=wrap;html=1;align=center;" vertex="1" parent="1">
          <mxGeometry x="-180" y="570" width="100" height="40" as="geometry" />
        </mxCell>
        <mxCell id="KsnkNuso38xR1FnwHKLN-17" style="edgeStyle=orthogonalEdgeStyle;rounded=0;orthogonalLoop=1;jettySize=auto;html=1;exitX=0.5;exitY=1;exitDx=0;exitDy=0;entryX=0.5;entryY=0;entryDx=0;entryDy=0;endArrow=none;endFill=0;" edge="1" parent="1" source="KsnkNuso38xR1FnwHKLN-15" target="KsnkNuso38xR1FnwHKLN-3">
          <mxGeometry relative="1" as="geometry" />
        </mxCell>
        <mxCell id="KsnkNuso38xR1FnwHKLN-18" style="edgeStyle=orthogonalEdgeStyle;rounded=0;orthogonalLoop=1;jettySize=auto;html=1;endArrow=none;endFill=0;" edge="1" parent="1" source="KsnkNuso38xR1FnwHKLN-15" target="KsnkNuso38xR1FnwHKLN-2">
          <mxGeometry relative="1" as="geometry" />
        </mxCell>
        <mxCell id="KsnkNuso38xR1FnwHKLN-19" style="edgeStyle=orthogonalEdgeStyle;rounded=0;orthogonalLoop=1;jettySize=auto;html=1;entryX=0.5;entryY=0;entryDx=0;entryDy=0;endArrow=none;endFill=0;" edge="1" parent="1" source="KsnkNuso38xR1FnwHKLN-15" target="KsnkNuso38xR1FnwHKLN-4">
          <mxGeometry relative="1" as="geometry" />
        </mxCell>
        <mxCell id="KsnkNuso38xR1FnwHKLN-20" style="edgeStyle=orthogonalEdgeStyle;rounded=0;orthogonalLoop=1;jettySize=auto;html=1;entryX=0.5;entryY=0;entryDx=0;entryDy=0;endArrow=none;endFill=0;" edge="1" parent="1" source="KsnkNuso38xR1FnwHKLN-15" target="KsnkNuso38xR1FnwHKLN-5">
          <mxGeometry relative="1" as="geometry" />
        </mxCell>
        <mxCell id="KsnkNuso38xR1FnwHKLN-15" value="" style="triangle;whiteSpace=wrap;html=1;rotation=90;" vertex="1" parent="1">
          <mxGeometry x="345" y="350" width="60" height="80" as="geometry" />
        </mxCell>
        <mxCell id="KsnkNuso38xR1FnwHKLN-30" value="" style="ellipse;whiteSpace=wrap;html=1;aspect=fixed;" vertex="1" parent="1">
          <mxGeometry x="367.5" y="330" width="15" height="15" as="geometry" />
        </mxCell>
      </root>
    </mxGraphModel>
  </diagram>
</mxfile>
